<svg width="512" height="512" viewBox="0 0 512 512" fill="none" xmlns="http://www.w3.org/2000/svg">
<g id="K&#195;&#150;NEKAMP SVG" clip-path="url(#clip0_5577_216)">
<rect width="512" height="512" fill="white"/>
<path id="K" d="M174.945 256.402L276.02 165.338C299.457 144.342 311.176 129.368 311.176 120.416C311.176 106.907 299.457 99.8268 276.02 99.1758V87.9453H400.775V99.1758C390.521 99.3385 380.186 101.536 369.77 105.768C359.516 109.999 350.076 115.533 341.449 122.369C332.823 129.205 316.791 143.609 293.354 165.582L233.051 221.246L357.074 346.49C385.395 375.299 404.356 392.714 413.959 398.736C423.562 404.758 436.013 407.77 451.312 407.77V419H279.438V407.77H286.029C304.584 407.77 316.14 406.223 320.697 403.131C325.255 400.038 327.533 396.214 327.533 391.656C327.533 384.82 315.733 369.602 292.133 346.002L198.627 251.764L174.945 272.516V332.818C174.945 358.86 175.596 375.95 176.898 384.088C178.201 392.063 181.456 398.004 186.664 401.91C192.035 405.816 202.208 407.77 217.182 407.77H223.529V419H74.8477V407.77H85.1016C99.2617 407.77 109.027 405.979 114.398 402.398C119.932 398.818 123.432 393.284 124.896 385.797C126.524 378.147 127.338 360.488 127.338 332.818V170.465C127.338 143.121 126.443 125.706 124.652 118.219C123.025 110.732 119.688 105.686 114.643 103.082C109.597 100.478 97.7969 99.1758 79.2422 99.1758V87.9453H225.727V99.1758H219.623C203.347 99.1758 192.686 100.559 187.641 103.326C182.595 105.93 179.177 110.895 177.387 118.219C175.759 125.543 174.945 142.958 174.945 170.465V256.402Z" fill="black"/>
</g>
<defs>
<clipPath id="clip0_5577_216">
<rect width="512" height="512" fill="white"/>
</clipPath>
</defs>
</svg>
