<svg width="512" height="512" viewBox="0 0 512 512" fill="none" xmlns="http://www.w3.org/2000/svg">
<g id="K&#195;&#150;NEKAMP SVG">
<rect width="512" height="512" fill="white"/>
<path id="K" d="M168.098 258.612L269.172 176.654C292.609 157.757 304.328 144.28 304.328 136.224C304.328 124.065 292.609 117.693 269.172 117.107V107H393.928V117.107C383.674 117.254 373.339 119.231 362.922 123.04C352.668 126.849 343.228 131.829 334.602 137.982C325.975 144.134 309.943 157.098 286.506 176.873L226.203 226.971L350.227 339.691C378.547 365.619 397.508 381.293 407.111 386.713C416.714 392.133 429.165 394.843 444.465 394.843V404.95H272.59V394.843H279.182C297.736 394.843 309.292 393.451 313.85 390.668C318.407 387.885 320.686 384.442 320.686 380.341C320.686 374.188 308.885 360.492 285.285 339.252L191.779 254.437L168.098 273.114V327.386C168.098 350.824 168.749 366.205 170.051 373.529C171.353 380.707 174.608 386.053 179.816 389.569C185.188 393.085 195.36 394.843 210.334 394.843H216.682V404.95H68V394.843H78.2539C92.4141 394.843 102.18 393.231 107.551 390.009C113.085 386.786 116.584 381.805 118.049 375.067C119.676 368.182 120.49 352.289 120.49 327.386V181.268C120.49 156.658 119.595 140.984 117.805 134.246C116.177 127.508 112.84 122.967 107.795 120.623C102.749 118.279 90.9492 117.107 72.3945 117.107V107H218.879V117.107H212.775C196.499 117.107 185.839 118.353 180.793 120.843C175.747 123.187 172.329 127.654 170.539 134.246C168.911 140.838 168.098 156.512 168.098 181.268V258.612Z" fill="black"/>
</g>
</svg>
