<svg width="512" height="512" viewBox="0 0 512 512" fill="none" xmlns="http://www.w3.org/2000/svg">
<g id="K&#195;&#150;NEKAMP SVG">
<rect width="512" height="512" fill="white"/>
<path id="K" d="M174.945 239.557L276.02 157.599C299.457 138.702 311.176 125.226 311.176 117.169C311.176 105.011 299.457 98.6387 276.02 98.0528V87.9453H400.775V98.0528C390.521 98.1992 380.186 100.177 369.77 103.985C359.516 107.794 350.076 112.774 341.449 118.927C332.823 125.079 316.791 138.043 293.354 157.819L233.051 207.916L357.074 320.636C385.395 346.564 404.356 362.238 413.959 367.658C423.562 373.078 436.013 375.788 451.312 375.788V385.895H279.438V375.788H286.029C304.584 375.788 316.14 374.396 320.697 371.613C325.255 368.83 327.533 365.387 327.533 361.286C327.533 355.134 315.733 341.437 292.133 320.197L198.627 235.382L174.945 254.059V308.332C174.945 331.769 175.596 347.15 176.898 354.474C178.201 361.652 181.456 366.999 186.664 370.514C192.035 374.03 202.208 375.788 217.182 375.788H223.529V385.895H74.8477V375.788H85.1016C99.2617 375.788 109.027 374.177 114.398 370.954C119.932 367.731 123.432 362.751 124.896 356.012C126.524 349.128 127.338 333.234 127.338 308.332V162.213C127.338 137.604 126.443 121.93 124.652 115.191C123.025 108.453 119.688 103.912 114.643 101.568C109.597 99.2246 97.7969 98.0528 79.2422 98.0528V87.9453H225.727V98.0528H219.623C203.347 98.0528 192.686 99.2979 187.641 101.788C182.595 104.132 179.177 108.6 177.387 115.191C175.759 121.783 174.945 137.457 174.945 162.213V239.557Z" fill="black"/>
</g>
</svg>
